<svg width="16" height="11" viewBox="0 0 16 11" fill="none" xmlns="http://www.w3.org/2000/svg">
<path d="M4.65372 0C5.11554 0 5.54184 0.0355246 5.93261 0.142098C6.32338 0.213148 6.6431 0.355246 6.92729 0.532869C7.21149 0.710492 7.42464 0.959164 7.56674 1.27889C7.70883 1.59861 7.77988 1.98938 7.77988 2.41567C7.77988 2.91302 7.67331 3.33931 7.42464 3.65903C7.21149 3.97875 6.85625 4.26295 6.42995 4.4761C7.03387 4.65372 7.49569 4.97344 7.77988 5.39974C8.06408 5.82603 8.2417 6.3589 8.2417 6.96282C8.2417 7.46016 8.13513 7.88646 7.95751 8.2417C7.77988 8.59695 7.49569 8.91667 7.17597 9.12982C6.85625 9.34297 6.46547 9.52059 6.03918 9.62716C5.61288 9.73374 5.18659 9.80479 4.76029 9.80479H0V0H4.65372ZM4.36952 3.97875C4.76029 3.97875 5.08002 3.87218 5.32869 3.69456C5.57736 3.51693 5.68393 3.19721 5.68393 2.80644C5.68393 2.59329 5.64841 2.38015 5.57736 2.23805C5.50631 2.09595 5.39974 1.98938 5.25764 1.8828C5.11554 1.81175 4.97344 1.7407 4.79582 1.70518C4.6182 1.66966 4.44057 1.66966 4.22743 1.66966H2.167V3.97875H4.36952ZM4.4761 8.17065C4.68925 8.17065 4.90239 8.13513 5.08002 8.09961C5.25764 8.06408 5.43526 7.99303 5.57736 7.88646C5.71946 7.77988 5.82603 7.67331 5.93261 7.49569C6.00366 7.31806 6.0747 7.10492 6.0747 6.85624C6.0747 6.3589 5.93261 6.00366 5.64841 5.75498C5.36421 5.54184 4.97344 5.43526 4.51162 5.43526H2.167V8.17065H4.4761ZM11.3323 8.13513C11.6165 8.41933 12.0428 8.56143 12.6112 8.56143C13.002 8.56143 13.3572 8.45485 13.6414 8.27723C13.9256 8.06408 14.1033 7.85093 14.1743 7.63779H15.915C15.6308 8.49038 15.2045 9.09429 14.6361 9.48506C14.0677 9.84031 13.3928 10.0535 12.5757 10.0535C12.0073 10.0535 11.51 9.94688 11.0481 9.76926C10.5863 9.59164 10.2311 9.34297 9.91136 8.98772C9.59164 8.668 9.34297 8.27723 9.20087 7.81541C9.02324 7.35359 8.9522 6.85625 8.9522 6.28785C8.9522 5.75498 9.02324 5.25764 9.20087 4.79582C9.37849 4.334 9.62716 3.94323 9.94688 3.58798C10.2666 3.26826 10.6574 2.98407 11.0837 2.80644C11.5455 2.62882 12.0073 2.52225 12.5757 2.52225C13.1796 2.52225 13.7125 2.62882 14.1743 2.87749C14.6361 3.12616 14.9914 3.41036 15.2756 3.83666C15.5598 4.22743 15.7729 4.68925 15.915 5.18659C15.9861 5.68393 16.0216 6.18128 15.9861 6.74967H10.835C10.835 7.31806 11.0481 7.85093 11.3323 8.13513ZM13.5704 4.40505C13.3217 4.15638 12.9309 4.01428 12.4691 4.01428C12.1494 4.01428 11.9007 4.08533 11.6876 4.1919C11.4744 4.29847 11.3323 4.44057 11.1902 4.58267C11.0481 4.72477 10.9771 4.90239 10.9416 5.08002C10.906 5.25764 10.8705 5.39974 10.8705 5.54184H14.0677C13.9967 5.00897 13.8191 4.65372 13.5704 4.40505ZM10.4442 0.674967H14.423V1.63413H10.4442V0.674967Z" fill="white"/>
</svg>
