<svg width="90" height="81" viewBox="0 0 90 81" fill="none" xmlns="http://www.w3.org/2000/svg">
<path d="M66.8293 80.5H23.5786L24.2489 78.4141C24.6098 77.2938 25.6551 76.5344 26.8317 76.5344H29.9769C30.7785 76.5344 31.5003 76.0704 31.8378 75.3673C31.8941 75.2501 31.9456 75.1235 31.9785 74.997L32.7144 72.2173L33.4409 69.4846H56.967L57.6936 72.2173L58.4295 74.997C58.4623 75.1235 58.5139 75.2501 58.5701 75.3673C58.9076 76.0704 59.6248 76.5344 60.431 76.5344H63.5763C64.7528 76.5344 65.7934 77.2938 66.1543 78.4141L66.8293 80.5Z" fill="url(#paint0_linear_33046_14930)"/>
<path d="M58.5702 75.3673H31.8379C31.8941 75.2501 31.9457 75.1235 31.9785 74.997L32.7144 72.2173L33.441 69.4846H56.9671L57.6936 72.2173L58.4296 74.997C58.4624 75.1235 58.5139 75.2501 58.5702 75.3673Z" fill="url(#paint1_linear_33046_14930)"/>
<path d="M57.6935 72.2173H32.7144L33.4409 69.4846H56.967L57.6935 72.2173Z" fill="#00042D"/>
<path d="M84.0696 19.4699L84.0649 20.6933L84.0743 20.6887V19.4699H84.0696ZM84.0696 19.4699L84.0649 20.6933L84.0743 20.6887V19.4699H84.0696ZM84.0696 19.4699L84.0649 20.6933L84.0743 20.6887V19.4699H84.0696ZM84.0696 19.4699L84.0649 20.6933L84.0743 20.6887V19.4699H84.0696ZM84.0696 19.4699L84.0649 20.6933L84.0743 20.6887V19.4699H84.0696ZM87.5758 0.5H3.00561C1.70251 0.5 0.633784 1.56404 0.629097 2.86245L0.540035 37.3711L0.530658 40.9336L0.521288 44.6835V45.635L0.511912 48.6865L0.502535 52.9474L0.474411 64.6987L0.469727 65.669C0.469727 66.9674 1.52908 68.0315 2.83218 68.0315H87.468C88.7711 68.0315 89.8398 66.9674 89.8398 65.669L89.8445 64.6987L89.8679 55.6801H89.8023L89.8398 40.282L89.8586 33.9821L89.8773 25.4604L89.8867 22.0574V21.509L89.8914 19.2777L89.8961 17.7872V17.3559L89.9148 9.58888L89.9336 2.86245C89.9383 1.56404 88.8742 0.5 87.5758 0.5ZM83.99 54.1912C83.9874 55.2939 83.0927 56.1864 81.99 56.1864H8.30861C7.20285 56.1864 6.30692 55.2891 6.30861 54.1833L6.31023 53.1255L6.31961 49.1131L6.32429 48.4944L6.32899 46.5163V45.546L6.34773 38.6602L6.42273 5.13584H84.1024L84.0931 9.98263L84.0696 19.4699L84.0649 20.6933L84.0556 24.5417V25.212L84.0509 28.226L84.0462 29.3697L84.0368 34.5962V34.6009L83.99 54.1912ZM84.0696 19.4699L84.0649 20.6933L84.0743 20.6887V19.4699H84.0696ZM84.0696 19.4699L84.0649 20.6933L84.0743 20.6887V19.4699H84.0696ZM84.0696 19.4699L84.0649 20.6933L84.0743 20.6887V19.4699H84.0696ZM84.0696 19.4699L84.0649 20.6933L84.0743 20.6887V19.4699H84.0696ZM84.0696 19.4699L84.0649 20.6933L84.0743 20.6887V19.4699H84.0696Z" fill="url(#paint2_linear_33046_14930)"/>
<path d="M0.47428 64.701L0.471934 65.6671C0.468184 66.9674 1.53082 68.031 2.83252 68.031H87.4688C88.7705 68.031 89.8383 66.9674 89.842 65.6671L89.8444 64.701H0.47428Z" fill="url(#paint3_linear_33046_14930)"/>
<path d="M89.9336 2.86245L89.9195 9.58888L89.9055 17.3512V17.7825L89.9008 19.2731C89.8961 19.2731 89.8961 19.2777 89.8914 19.2777C87.9602 20.323 86.0149 21.3496 84.0696 22.3714L84.0743 20.6887V19.4699L84.0931 9.98263L84.0986 7.13971C84.1007 6.03363 83.2047 5.13584 82.0986 5.13584H8.41827C7.31544 5.13584 6.42074 6.02855 6.41827 7.13137L6.34774 38.6602L6.32899 45.546V46.5163L6.3243 48.4943C4.3884 48.6115 2.4525 48.6678 0.516602 48.6819L0.525978 45.635V45.1241L0.544725 37.3711L0.629102 2.86245C0.633789 1.56404 1.70251 0.5 3.00561 0.5H87.5758C88.8742 0.5 89.9383 1.56404 89.9336 2.86245Z" fill="url(#paint4_linear_33046_14930)"/>
<path d="M24.3524 38.7669L21.012 46.3553H15L29.6973 13H35.7109L50.4081 46.3553H44.3947L41.0543 38.7669H24.3524ZM38.7624 33.5657L32.7019 19.823L26.6414 33.5657H38.7624Z" fill="url(#paint5_linear_33046_14930)"/>
<path d="M74.8375 46.3553H69.9706V42.9666C67.8708 45.4799 65.0553 46.7366 61.5243 46.7366C58.8834 46.7366 56.6957 45.9887 54.9624 44.4945C53.2277 42.9988 52.3625 41.0031 52.3625 38.5059C52.3625 36.0087 53.2849 34.1376 55.1296 32.8985C56.9743 31.658 59.4715 31.0363 62.6212 31.0363H69.5395V30.0831C69.5395 26.712 67.6626 25.0256 63.9087 25.0256C61.5537 25.0256 59.1049 25.8849 56.5593 27.602L54.1735 24.2617C57.2587 21.8128 60.759 20.587 64.6712 20.587C67.6611 20.587 70.1041 21.3436 71.9971 22.8554C73.8902 24.3643 74.836 26.7428 74.836 29.9878V46.3553H74.8375ZM69.4926 36.9076V34.7608H63.479C59.6298 34.7608 57.7045 35.9691 57.7045 38.3871C57.7045 39.6277 58.1811 40.5749 59.1357 41.226C60.0903 41.8785 61.4188 42.2055 63.1198 42.2055C64.8222 42.2055 66.3091 41.7275 67.5819 40.7729C68.8562 39.8183 69.4926 38.5293 69.4926 36.9076Z" fill="url(#paint6_linear_33046_14930)"/>
<defs>
<linearGradient id="paint0_linear_33046_14930" x1="43.3995" y1="32.6839" x2="45.2841" y2="82.6233" gradientUnits="userSpaceOnUse">
<stop stop-color="#A76DFC"/>
<stop offset="0.2254" stop-color="#9B60F0"/>
<stop offset="0.6394" stop-color="#7C3ED1"/>
<stop offset="1" stop-color="#5C1CB2"/>
</linearGradient>
<linearGradient id="paint1_linear_33046_14930" x1="45.3534" y1="82.3869" x2="45.146" y2="72.6384" gradientUnits="userSpaceOnUse">
<stop stop-color="#5CBFFC" stop-opacity="0"/>
<stop offset="0.2757" stop-color="#5C8AE4" stop-opacity="0.2757"/>
<stop offset="0.6158" stop-color="#5C4FC9" stop-opacity="0.6158"/>
<stop offset="0.8672" stop-color="#5C2AB8" stop-opacity="0.8672"/>
<stop offset="1" stop-color="#5C1CB2"/>
</linearGradient>
<linearGradient id="paint2_linear_33046_14930" x1="44.9769" y1="28.3068" x2="46.9227" y2="79.8676" gradientUnits="userSpaceOnUse">
<stop stop-color="#A76DFC"/>
<stop offset="0.2254" stop-color="#9B60F0"/>
<stop offset="0.6394" stop-color="#7C3ED1"/>
<stop offset="1" stop-color="#5C1CB2"/>
</linearGradient>
<linearGradient id="paint3_linear_33046_14930" x1="44.8303" y1="71.9837" x2="45.4526" y2="59.1236" gradientUnits="userSpaceOnUse">
<stop stop-color="#5CBFFC" stop-opacity="0"/>
<stop offset="0.2757" stop-color="#5C8AE4" stop-opacity="0.2757"/>
<stop offset="0.6158" stop-color="#5C4FC9" stop-opacity="0.6158"/>
<stop offset="0.8672" stop-color="#5C2AB8" stop-opacity="0.8672"/>
<stop offset="1" stop-color="#5C1CB2"/>
</linearGradient>
<linearGradient id="paint4_linear_33046_14930" x1="45.3784" y1="32.7291" x2="44.6569" y2="-0.0990511" gradientUnits="userSpaceOnUse">
<stop stop-color="#FF00C1"/>
<stop offset="0.1601" stop-color="#FE15AD"/>
<stop offset="0.4927" stop-color="#FA4D7B"/>
<stop offset="0.9659" stop-color="#F4A52A"/>
<stop offset="1" stop-color="#F4AC24"/>
</linearGradient>
<linearGradient id="paint5_linear_33046_14930" x1="32.7041" y1="13" x2="32.7041" y2="46.3553" gradientUnits="userSpaceOnUse">
<stop stop-color="#F6903F"/>
<stop offset="0.34" stop-color="#FB4E7B"/>
<stop offset="0.565" stop-color="#FF01C2"/>
<stop offset="1" stop-color="#7A3CCF"/>
</linearGradient>
<linearGradient id="paint6_linear_33046_14930" x1="63.6" y1="20.587" x2="63.6" y2="46.7366" gradientUnits="userSpaceOnUse">
<stop stop-color="#F6903F"/>
<stop offset="0.34" stop-color="#FB4E7B"/>
<stop offset="0.565" stop-color="#FF01C2"/>
<stop offset="1" stop-color="#7A3CCF"/>
</linearGradient>
</defs>
</svg>
