<svg width="16" height="12" viewBox="0 0 16 12" fill="none" xmlns="http://www.w3.org/2000/svg">
<path d="M15.6 2.09999C15.4 1.39999 14.9 0.899994 14.2 0.699994C13 0.399994 7.89999 0.399994 7.89999 0.399994C7.89999 0.399994 2.90001 0.399994 1.60001 0.699994C0.900006 0.899994 0.399997 1.39999 0.199997 2.09999C-3.05474e-06 3.39999 0 5.99999 0 5.99999C0 5.99999 3.03984e-06 8.59999 0.300003 9.89999C0.500003 10.6 0.999997 11.1 1.7 11.3C2.9 11.6 8 11.6 8 11.6C8 11.6 13 11.6 14.3 11.3C15 11.1 15.5 10.6 15.7 9.89999C16 8.59999 16 5.99999 16 5.99999C16 5.99999 16 3.39999 15.6 2.09999ZM6.39999 8.39999V3.59999L10.6 5.99999L6.39999 8.39999Z" fill="white"/>
</svg>
